<svg width="925" height="366" viewBox="0 0 925 366" fill="none" xmlns="http://www.w3.org/2000/svg">
<path d="M170.373 0L0 60.756L25.986 286.029L170.373 366L314.76 286.029L340.746 60.756L170.373 0Z" fill="#DD0031"/>
<path d="M170.373 0V40.626V40.443V225.822V366L314.76 286.029L340.746 60.756L170.373 0Z" fill="#C3002F"/>
<path d="M170.373 40.443L63.8669 279.258H103.578L124.989 225.822H215.391L236.802 279.258H276.513L170.373 40.443ZM201.483 192.882H139.263L170.373 118.035L201.483 192.882Z" fill="white"/>
<path d="M398.912 144.472H399.936C401.899 141.315 404.544 138.84 407.872 137.048C411.2 135.171 414.997 134.232 419.264 134.232C423.189 134.232 426.645 134.872 429.632 136.152C432.619 137.432 435.051 139.267 436.928 141.656C438.891 143.96 440.341 146.776 441.28 150.104C442.304 153.347 442.816 156.973 442.816 160.984V199H426.048V163.032C426.048 158.509 425.024 155.181 422.976 153.048C421.013 150.829 418.112 149.72 414.272 149.72C411.968 149.72 409.92 150.232 408.128 151.256C406.421 152.195 404.928 153.517 403.648 155.224C402.453 156.845 401.515 158.808 400.832 161.112C400.235 163.331 399.936 165.72 399.936 168.28V199H383.168V136.28H398.912V144.472ZM484.971 228.696C480.534 228.696 476.566 228.099 473.067 226.904C469.654 225.795 466.667 224.301 464.107 222.424C461.547 220.632 459.414 218.627 457.707 216.408C456 214.189 454.763 211.971 453.995 209.752L469.995 203.352C471.19 206.68 473.152 209.24 475.883 211.032C478.614 212.909 481.643 213.848 484.971 213.848C490.262 213.848 494.443 212.184 497.515 208.856C500.587 205.613 502.123 201.048 502.123 195.16V190.808H501.099C499.136 193.539 496.534 195.715 493.291 197.336C490.134 198.872 486.379 199.64 482.027 199.64C478.272 199.64 474.603 198.872 471.019 197.336C467.52 195.8 464.406 193.624 461.675 190.808C458.944 187.907 456.726 184.451 455.019 180.44C453.312 176.429 452.459 171.949 452.459 167C452.459 162.051 453.312 157.571 455.019 153.56C456.726 149.464 458.944 146.008 461.675 143.192C464.406 140.291 467.52 138.072 471.019 136.536C474.603 135 478.272 134.232 482.027 134.232C486.379 134.232 490.134 135.043 493.291 136.664C496.534 138.2 499.136 140.333 501.099 143.064H502.123V136.28H518.123V194.52C518.123 199.811 517.312 204.547 515.691 208.728C514.07 212.995 511.808 216.579 508.907 219.48C506.006 222.467 502.507 224.728 498.411 226.264C494.4 227.885 489.92 228.696 484.971 228.696ZM485.611 184.536C487.659 184.536 489.664 184.152 491.627 183.384C493.675 182.616 495.467 181.507 497.003 180.056C498.539 178.52 499.776 176.685 500.715 174.552C501.654 172.333 502.123 169.816 502.123 167C502.123 164.184 501.654 161.667 500.715 159.448C499.776 157.229 498.539 155.395 497.003 153.944C495.467 152.408 493.675 151.256 491.627 150.488C489.664 149.72 487.659 149.336 485.611 149.336C483.563 149.336 481.558 149.72 479.595 150.488C477.632 151.256 475.883 152.408 474.347 153.944C472.811 155.48 471.574 157.357 470.635 159.576C469.696 161.709 469.227 164.184 469.227 167C469.227 169.816 469.696 172.333 470.635 174.552C471.574 176.685 472.811 178.52 474.347 180.056C475.883 181.507 477.632 182.616 479.595 183.384C481.558 184.152 483.563 184.536 485.611 184.536ZM532.418 151.896H575.81V166.744H532.418V151.896ZM599.512 127.192C598.061 127.192 596.653 126.936 595.288 126.424C594.008 125.827 592.856 125.059 591.832 124.12C590.893 123.096 590.125 121.944 589.528 120.664C589.016 119.384 588.76 117.976 588.76 116.44C588.76 114.904 589.016 113.496 589.528 112.216C590.125 110.936 590.893 109.827 591.832 108.888C592.856 107.864 594.008 107.096 595.288 106.584C596.653 105.987 598.061 105.688 599.512 105.688C602.499 105.688 605.059 106.755 607.192 108.888C609.325 110.936 610.392 113.453 610.392 116.44C610.392 119.427 609.325 121.987 607.192 124.12C605.059 126.168 602.499 127.192 599.512 127.192ZM591.192 199V136.28H607.96V199H591.192ZM669.388 191.448H668.364C666.828 194.093 664.439 196.355 661.196 198.232C657.953 200.109 653.943 201.048 649.164 201.048C645.153 201.048 641.313 200.237 637.644 198.616C634.06 196.909 630.86 194.605 628.044 191.704C625.313 188.717 623.137 185.176 621.516 181.08C619.895 176.984 619.084 172.504 619.084 167.64C619.084 162.776 619.895 158.296 621.516 154.2C623.137 150.104 625.313 146.605 628.044 143.704C630.86 140.717 634.06 138.413 637.644 136.792C641.313 135.085 645.153 134.232 649.164 134.232C653.943 134.232 657.953 135.171 661.196 137.048C664.439 138.925 666.828 141.187 668.364 143.832H669.388L668.364 134.872V107.352H685.132V199H669.388V191.448ZM652.62 185.56C654.839 185.56 656.929 185.176 658.892 184.408C660.94 183.555 662.732 182.36 664.268 180.824C665.804 179.288 667.041 177.411 667.98 175.192C668.919 172.973 669.388 170.456 669.388 167.64C669.388 164.824 668.919 162.307 667.98 160.088C667.041 157.869 665.804 155.992 664.268 154.456C662.732 152.92 660.94 151.768 658.892 151C656.929 150.147 654.839 149.72 652.62 149.72C650.401 149.72 648.268 150.147 646.22 151C644.257 151.853 642.508 153.048 640.972 154.584C639.436 156.12 638.199 157.997 637.26 160.216C636.321 162.435 635.852 164.909 635.852 167.64C635.852 170.371 636.321 172.845 637.26 175.064C638.199 177.283 639.436 179.16 640.972 180.696C642.508 182.232 644.257 183.427 646.22 184.28C648.268 185.133 650.401 185.56 652.62 185.56ZM709.53 199.768C706.458 199.768 703.813 198.701 701.594 196.568C699.461 194.349 698.394 191.704 698.394 188.632C698.394 185.56 699.461 182.957 701.594 180.824C703.813 178.691 706.458 177.624 709.53 177.624C712.602 177.624 715.205 178.691 717.338 180.824C719.471 182.957 720.538 185.56 720.538 188.632C720.538 191.704 719.471 194.349 717.338 196.568C715.205 198.701 712.602 199.768 709.53 199.768ZM763.489 134.232C768.353 134.232 772.79 135.085 776.801 136.792C780.897 138.413 784.396 140.717 787.297 143.704C790.284 146.605 792.588 150.104 794.209 154.2C795.916 158.296 796.769 162.776 796.769 167.64C796.769 172.504 795.916 176.984 794.209 181.08C792.588 185.176 790.284 188.717 787.297 191.704C784.396 194.605 780.897 196.909 776.801 198.616C772.79 200.237 768.353 201.048 763.489 201.048C758.625 201.048 754.145 200.237 750.049 198.616C746.038 196.909 742.54 194.605 739.553 191.704C736.652 188.717 734.348 185.176 732.641 181.08C731.02 176.984 730.209 172.504 730.209 167.64C730.209 162.776 731.02 158.296 732.641 154.2C734.348 150.104 736.652 146.605 739.553 143.704C742.54 140.717 746.038 138.413 750.049 136.792C754.145 135.085 758.625 134.232 763.489 134.232ZM763.489 185.56C765.622 185.56 767.67 185.176 769.633 184.408C771.681 183.555 773.473 182.36 775.009 180.824C776.545 179.288 777.74 177.411 778.593 175.192C779.532 172.973 780.001 170.456 780.001 167.64C780.001 164.824 779.532 162.307 778.593 160.088C777.74 157.869 776.545 155.992 775.009 154.456C773.473 152.92 771.681 151.768 769.633 151C767.67 150.147 765.622 149.72 763.489 149.72C761.27 149.72 759.18 150.147 757.217 151C755.254 151.768 753.505 152.92 751.969 154.456C750.433 155.992 749.196 157.869 748.257 160.088C747.404 162.307 746.977 164.824 746.977 167.64C746.977 170.456 747.404 172.973 748.257 175.192C749.196 177.411 750.433 179.288 751.969 180.824C753.505 182.36 755.254 183.555 757.217 184.408C759.18 185.176 761.27 185.56 763.489 185.56ZM806.293 136.28H822.037V144.984H823.061C823.829 143.448 824.853 142.04 826.133 140.76C827.413 139.48 828.821 138.371 830.357 137.432C831.978 136.493 833.685 135.768 835.477 135.256C837.354 134.744 839.189 134.488 840.981 134.488C843.2 134.488 845.077 134.701 846.613 135.128C848.234 135.555 849.6 136.109 850.709 136.792L846.229 152.024C845.205 151.512 844.053 151.128 842.773 150.872C841.578 150.531 840.085 150.36 838.293 150.36C835.989 150.36 833.898 150.829 832.021 151.768C830.144 152.621 828.522 153.859 827.157 155.48C825.877 157.101 824.853 159.021 824.085 161.24C823.402 163.373 823.061 165.72 823.061 168.28V199H806.293V136.28ZM884.096 228.696C879.659 228.696 875.691 228.099 872.192 226.904C868.779 225.795 865.792 224.301 863.232 222.424C860.672 220.632 858.539 218.627 856.832 216.408C855.125 214.189 853.888 211.971 853.12 209.752L869.12 203.352C870.315 206.68 872.277 209.24 875.008 211.032C877.739 212.909 880.768 213.848 884.096 213.848C889.387 213.848 893.568 212.184 896.64 208.856C899.712 205.613 901.248 201.048 901.248 195.16V190.808H900.224C898.261 193.539 895.659 195.715 892.416 197.336C889.259 198.872 885.504 199.64 881.152 199.64C877.397 199.64 873.728 198.872 870.144 197.336C866.645 195.8 863.531 193.624 860.8 190.808C858.069 187.907 855.851 184.451 854.144 180.44C852.437 176.429 851.584 171.949 851.584 167C851.584 162.051 852.437 157.571 854.144 153.56C855.851 149.464 858.069 146.008 860.8 143.192C863.531 140.291 866.645 138.072 870.144 136.536C873.728 135 877.397 134.232 881.152 134.232C885.504 134.232 889.259 135.043 892.416 136.664C895.659 138.2 898.261 140.333 900.224 143.064H901.248V136.28H917.248V194.52C917.248 199.811 916.437 204.547 914.816 208.728C913.195 212.995 910.933 216.579 908.032 219.48C905.131 222.467 901.632 224.728 897.536 226.264C893.525 227.885 889.045 228.696 884.096 228.696ZM884.736 184.536C886.784 184.536 888.789 184.152 890.752 183.384C892.8 182.616 894.592 181.507 896.128 180.056C897.664 178.52 898.901 176.685 899.84 174.552C900.779 172.333 901.248 169.816 901.248 167C901.248 164.184 900.779 161.667 899.84 159.448C898.901 157.229 897.664 155.395 896.128 153.944C894.592 152.408 892.8 151.256 890.752 150.488C888.789 149.72 886.784 149.336 884.736 149.336C882.688 149.336 880.683 149.72 878.72 150.488C876.757 151.256 875.008 152.408 873.472 153.944C871.936 155.48 870.699 157.357 869.76 159.576C868.821 161.709 868.352 164.184 868.352 167C868.352 169.816 868.821 172.333 869.76 174.552C870.699 176.685 871.936 178.52 873.472 180.056C875.008 181.507 876.757 182.616 878.72 183.384C880.683 184.152 882.688 184.536 884.736 184.536Z" fill="#DD0031"/>
<rect x="376" y="236" width="397" height="53" fill="#DD0031"/>
<path d="M389.488 242.632H396.88L409.792 277H402.64L399.808 268.792H386.56L383.728 277H376.576L389.488 242.632ZM397.696 262.84L394.624 254.248L393.376 250.072H392.992L391.744 254.248L388.672 262.84H397.696ZM418.951 256.552H419.335C420.071 255.368 421.063 254.44 422.311 253.768C423.559 253.064 424.983 252.712 426.583 252.712C428.055 252.712 429.351 252.952 430.471 253.432C431.591 253.912 432.503 254.6 433.207 255.496C433.943 256.36 434.487 257.416 434.839 258.664C435.223 259.88 435.415 261.24 435.415 262.744V277H429.127V263.512C429.127 261.816 428.743 260.568 427.975 259.768C427.239 258.936 426.151 258.52 424.711 258.52C423.847 258.52 423.079 258.712 422.407 259.096C421.767 259.448 421.207 259.944 420.727 260.584C420.279 261.192 419.927 261.928 419.671 262.792C419.447 263.624 419.335 264.52 419.335 265.48V277H413.047V253.48H418.951V256.552ZM451.224 288.136C449.56 288.136 448.072 287.912 446.76 287.464C445.48 287.048 444.36 286.488 443.4 285.784C442.44 285.112 441.64 284.36 441 283.528C440.36 282.696 439.896 281.864 439.608 281.032L445.608 278.632C446.056 279.88 446.792 280.84 447.816 281.512C448.84 282.216 449.976 282.568 451.224 282.568C453.208 282.568 454.776 281.944 455.928 280.696C457.08 279.48 457.656 277.768 457.656 275.56V273.928H457.272C456.536 274.952 455.56 275.768 454.344 276.376C453.16 276.952 451.752 277.24 450.12 277.24C448.712 277.24 447.336 276.952 445.992 276.376C444.68 275.8 443.512 274.984 442.488 273.928C441.464 272.84 440.632 271.544 439.992 270.04C439.352 268.536 439.032 266.856 439.032 265C439.032 263.144 439.352 261.464 439.992 259.96C440.632 258.424 441.464 257.128 442.488 256.072C443.512 254.984 444.68 254.152 445.992 253.576C447.336 253 448.712 252.712 450.12 252.712C451.752 252.712 453.16 253.016 454.344 253.624C455.56 254.2 456.536 255 457.272 256.024H457.656V253.48H463.656V275.32C463.656 277.304 463.352 279.08 462.744 280.648C462.136 282.248 461.288 283.592 460.2 284.68C459.112 285.8 457.8 286.648 456.264 287.224C454.76 287.832 453.08 288.136 451.224 288.136ZM451.464 271.576C452.232 271.576 452.984 271.432 453.72 271.144C454.488 270.856 455.16 270.44 455.736 269.896C456.312 269.32 456.776 268.632 457.128 267.832C457.48 267 457.656 266.056 457.656 265C457.656 263.944 457.48 263 457.128 262.168C456.776 261.336 456.312 260.648 455.736 260.104C455.16 259.528 454.488 259.096 453.72 258.808C452.984 258.52 452.232 258.376 451.464 258.376C450.696 258.376 449.944 258.52 449.208 258.808C448.472 259.096 447.816 259.528 447.24 260.104C446.664 260.68 446.2 261.384 445.848 262.216C445.496 263.016 445.32 263.944 445.32 265C445.32 266.056 445.496 267 445.848 267.832C446.2 268.632 446.664 269.32 447.24 269.896C447.816 270.44 448.472 270.856 449.208 271.144C449.944 271.432 450.696 271.576 451.464 271.576ZM485.054 273.928H484.67C483.934 275.112 482.942 276.056 481.694 276.76C480.446 277.432 479.022 277.768 477.422 277.768C474.446 277.768 472.222 276.856 470.75 275.032C469.31 273.208 468.59 270.776 468.59 267.736V253.48H474.878V266.968C474.878 268.664 475.246 269.928 475.982 270.76C476.75 271.56 477.854 271.96 479.294 271.96C480.158 271.96 480.91 271.784 481.55 271.432C482.222 271.048 482.782 270.552 483.23 269.944C483.71 269.304 484.062 268.568 484.286 267.736C484.542 266.872 484.67 265.96 484.67 265V253.48H490.958V277H485.054V273.928ZM496.344 277V242.632H502.632V277H496.344ZM522.278 274.504H521.894C521.158 275.4 520.262 276.168 519.206 276.808C518.182 277.448 516.854 277.768 515.222 277.768C514.006 277.768 512.854 277.56 511.766 277.144C510.71 276.76 509.782 276.216 508.982 275.512C508.182 274.808 507.558 273.96 507.11 272.968C506.662 271.976 506.438 270.888 506.438 269.704C506.438 268.488 506.678 267.4 507.158 266.44C507.638 265.448 508.31 264.6 509.174 263.896C510.038 263.192 511.046 262.664 512.198 262.312C513.382 261.928 514.662 261.736 516.038 261.736C517.574 261.736 518.838 261.864 519.83 262.12C520.822 262.344 521.638 262.584 522.278 262.84V262.12C522.278 260.872 521.782 259.848 520.79 259.048C519.798 258.216 518.566 257.8 517.094 257.8C514.918 257.8 513.078 258.712 511.574 260.536L507.014 257.416C509.51 254.28 512.918 252.712 517.238 252.712C520.886 252.712 523.67 253.576 525.59 255.304C527.51 257 528.47 259.528 528.47 262.888V277H522.278V274.504ZM522.278 267.448C521.542 267.096 520.774 266.824 519.974 266.632C519.206 266.408 518.358 266.296 517.43 266.296C515.926 266.296 514.758 266.632 513.926 267.304C513.126 267.944 512.726 268.744 512.726 269.704C512.726 270.664 513.11 271.432 513.878 272.008C514.678 272.584 515.59 272.872 516.614 272.872C517.446 272.872 518.214 272.728 518.918 272.44C519.622 272.12 520.214 271.72 520.694 271.24C521.206 270.728 521.59 270.152 521.846 269.512C522.134 268.84 522.278 268.152 522.278 267.448ZM533.469 253.48H539.373V256.744H539.757C540.045 256.168 540.429 255.64 540.909 255.16C541.389 254.68 541.917 254.264 542.493 253.912C543.101 253.56 543.741 253.288 544.413 253.096C545.117 252.904 545.805 252.808 546.477 252.808C547.309 252.808 548.013 252.888 548.589 253.048C549.197 253.208 549.709 253.416 550.125 253.672L548.445 259.384C548.061 259.192 547.629 259.048 547.149 258.952C546.701 258.824 546.141 258.76 545.469 258.76C544.605 258.76 543.821 258.936 543.117 259.288C542.413 259.608 541.805 260.072 541.293 260.68C540.813 261.288 540.429 262.008 540.141 262.84C539.885 263.64 539.757 264.52 539.757 265.48V277H533.469V253.48ZM564.331 242.632H570.811V277H564.331V242.632ZM582.873 256.552H583.257C583.993 255.368 584.985 254.44 586.233 253.768C587.481 253.064 588.905 252.712 590.505 252.712C591.977 252.712 593.273 252.952 594.393 253.432C595.513 253.912 596.425 254.6 597.129 255.496C597.865 256.36 598.409 257.416 598.761 258.664C599.145 259.88 599.337 261.24 599.337 262.744V277H593.049V263.512C593.049 261.816 592.665 260.568 591.897 259.768C591.161 258.936 590.073 258.52 588.633 258.52C587.769 258.52 587.001 258.712 586.329 259.096C585.689 259.448 585.129 259.944 584.649 260.584C584.201 261.192 583.849 261.928 583.593 262.792C583.369 263.624 583.257 264.52 583.257 265.48V277H576.969V253.48H582.873V256.552ZM622.052 274.168H621.668C621.092 275.16 620.196 276.008 618.98 276.712C617.764 277.416 616.26 277.768 614.468 277.768C612.964 277.768 611.524 277.464 610.148 276.856C608.804 276.216 607.604 275.352 606.548 274.264C605.524 273.144 604.708 271.816 604.1 270.28C603.492 268.744 603.188 267.064 603.188 265.24C603.188 263.416 603.492 261.736 604.1 260.2C604.708 258.664 605.524 257.352 606.548 256.264C607.604 255.144 608.804 254.28 610.148 253.672C611.524 253.032 612.964 252.712 614.468 252.712C616.26 252.712 617.764 253.064 618.98 253.768C620.196 254.472 621.092 255.32 621.668 256.312H622.052L621.668 252.952V242.632H627.956V277H622.052V274.168ZM615.764 271.96C616.596 271.96 617.38 271.816 618.116 271.528C618.884 271.208 619.556 270.76 620.132 270.184C620.708 269.608 621.172 268.904 621.524 268.072C621.876 267.24 622.052 266.296 622.052 265.24C622.052 264.184 621.876 263.24 621.524 262.408C621.172 261.576 620.708 260.872 620.132 260.296C619.556 259.72 618.884 259.288 618.116 259C617.38 258.68 616.596 258.52 615.764 258.52C614.932 258.52 614.132 258.68 613.364 259C612.628 259.32 611.972 259.768 611.396 260.344C610.82 260.92 610.356 261.624 610.004 262.456C609.652 263.288 609.476 264.216 609.476 265.24C609.476 266.264 609.652 267.192 610.004 268.024C610.356 268.856 610.82 269.56 611.396 270.136C611.972 270.712 612.628 271.16 613.364 271.48C614.132 271.8 614.932 271.96 615.764 271.96ZM644.215 252.712C646.039 252.712 647.703 253.032 649.207 253.672C650.743 254.28 652.055 255.144 653.143 256.264C654.263 257.352 655.127 258.664 655.735 260.2C656.375 261.736 656.695 263.416 656.695 265.24C656.695 267.064 656.375 268.744 655.735 270.28C655.127 271.816 654.263 273.144 653.143 274.264C652.055 275.352 650.743 276.216 649.207 276.856C647.703 277.464 646.039 277.768 644.215 277.768C642.391 277.768 640.711 277.464 639.175 276.856C637.671 276.216 636.359 275.352 635.239 274.264C634.151 273.144 633.287 271.816 632.647 270.28C632.039 268.744 631.735 267.064 631.735 265.24C631.735 263.416 632.039 261.736 632.647 260.2C633.287 258.664 634.151 257.352 635.239 256.264C636.359 255.144 637.671 254.28 639.175 253.672C640.711 253.032 642.391 252.712 644.215 252.712ZM644.215 271.96C645.015 271.96 645.783 271.816 646.519 271.528C647.287 271.208 647.959 270.76 648.535 270.184C649.111 269.608 649.559 268.904 649.879 268.072C650.231 267.24 650.407 266.296 650.407 265.24C650.407 264.184 650.231 263.24 649.879 262.408C649.559 261.576 649.111 260.872 648.535 260.296C647.959 259.72 647.287 259.288 646.519 259C645.783 258.68 645.015 258.52 644.215 258.52C643.383 258.52 642.599 258.68 641.863 259C641.127 259.288 640.471 259.72 639.895 260.296C639.319 260.872 638.855 261.576 638.503 262.408C638.183 263.24 638.023 264.184 638.023 265.24C638.023 266.296 638.183 267.24 638.503 268.072C638.855 268.904 639.319 269.608 639.895 270.184C640.471 270.76 641.127 271.208 641.863 271.528C642.599 271.816 643.383 271.96 644.215 271.96ZM666.17 256.552H666.554C667.29 255.368 668.282 254.44 669.53 253.768C670.778 253.064 672.202 252.712 673.802 252.712C675.274 252.712 676.57 252.952 677.69 253.432C678.81 253.912 679.722 254.6 680.426 255.496C681.162 256.36 681.706 257.416 682.058 258.664C682.442 259.88 682.634 261.24 682.634 262.744V277H676.346V263.512C676.346 261.816 675.962 260.568 675.194 259.768C674.458 258.936 673.37 258.52 671.93 258.52C671.066 258.52 670.298 258.712 669.626 259.096C668.986 259.448 668.426 259.944 667.946 260.584C667.498 261.192 667.146 261.928 666.89 262.792C666.666 263.624 666.554 264.52 666.554 265.48V277H660.266V253.48H666.17V256.552ZM710.101 271.336C709.013 273.256 707.541 274.808 705.685 275.992C703.861 277.176 701.621 277.768 698.965 277.768C697.173 277.768 695.509 277.464 693.973 276.856C692.469 276.216 691.157 275.336 690.037 274.216C688.917 273.096 688.037 271.784 687.397 270.28C686.789 268.744 686.485 267.064 686.485 265.24C686.485 263.544 686.789 261.944 687.397 260.44C688.005 258.904 688.853 257.576 689.941 256.456C691.029 255.304 692.309 254.392 693.781 253.72C695.285 253.048 696.933 252.712 698.725 252.712C700.613 252.712 702.293 253.032 703.765 253.672C705.237 254.28 706.469 255.144 707.461 256.264C708.453 257.352 709.205 258.648 709.717 260.152C710.229 261.656 710.485 263.288 710.485 265.048C710.485 265.272 710.485 265.464 710.485 265.624C710.453 265.816 710.437 265.992 710.437 266.152C710.405 266.312 710.389 266.488 710.389 266.68H692.677C692.805 267.64 693.061 268.472 693.445 269.176C693.861 269.848 694.357 270.424 694.933 270.904C695.541 271.352 696.197 271.688 696.901 271.912C697.605 272.104 698.325 272.2 699.061 272.2C700.501 272.2 701.685 271.88 702.613 271.24C703.573 270.568 704.325 269.736 704.869 268.744L710.101 271.336ZM704.389 262.216C704.357 261.8 704.213 261.336 703.957 260.824C703.733 260.312 703.381 259.832 702.901 259.384C702.453 258.936 701.877 258.568 701.173 258.28C700.501 257.992 699.685 257.848 698.725 257.848C697.381 257.848 696.197 258.232 695.173 259C694.149 259.768 693.429 260.84 693.013 262.216H704.389ZM724.047 277.768C722.511 277.768 721.135 277.576 719.919 277.192C718.735 276.808 717.695 276.312 716.799 275.704C715.935 275.064 715.199 274.344 714.591 273.544C713.983 272.712 713.519 271.88 713.199 271.048L718.815 268.648C719.359 269.864 720.079 270.776 720.975 271.384C721.903 271.96 722.927 272.248 724.047 272.248C725.199 272.248 726.111 272.04 726.783 271.624C727.455 271.208 727.791 270.712 727.791 270.136C727.791 269.496 727.503 268.984 726.927 268.6C726.383 268.184 725.423 267.816 724.047 267.496L720.735 266.776C719.999 266.616 719.231 266.36 718.431 266.008C717.663 265.656 716.959 265.208 716.319 264.664C715.679 264.12 715.151 263.464 714.735 262.696C714.319 261.928 714.111 261.032 714.111 260.008C714.111 258.856 714.351 257.832 714.831 256.936C715.343 256.04 716.031 255.288 716.895 254.68C717.759 254.04 718.767 253.56 719.919 253.24C721.103 252.888 722.367 252.712 723.711 252.712C725.951 252.712 727.951 253.16 729.711 254.056C731.471 254.92 732.767 256.312 733.599 258.232L728.175 260.44C727.727 259.512 727.071 258.84 726.207 258.424C725.343 258.008 724.479 257.8 723.615 257.8C722.719 257.8 721.935 257.992 721.263 258.376C720.591 258.728 720.255 259.192 720.255 259.768C720.255 260.312 720.527 260.744 721.071 261.064C721.647 261.384 722.415 261.672 723.375 261.928L726.975 262.792C729.375 263.368 731.151 264.296 732.303 265.576C733.487 266.824 734.079 268.312 734.079 270.04C734.079 271.064 733.839 272.04 733.359 272.968C732.879 273.896 732.191 274.728 731.295 275.464C730.431 276.168 729.375 276.728 728.127 277.144C726.911 277.56 725.551 277.768 724.047 277.768ZM741.208 250.072C740.664 250.072 740.136 249.976 739.624 249.784C739.144 249.56 738.712 249.272 738.328 248.92C737.976 248.536 737.688 248.104 737.464 247.624C737.272 247.144 737.176 246.616 737.176 246.04C737.176 245.464 737.272 244.936 737.464 244.456C737.688 243.976 737.976 243.56 738.328 243.208C738.712 242.824 739.144 242.536 739.624 242.344C740.136 242.12 740.664 242.008 741.208 242.008C742.328 242.008 743.288 242.408 744.088 243.208C744.888 243.976 745.288 244.92 745.288 246.04C745.288 247.16 744.888 248.12 744.088 248.92C743.288 249.688 742.328 250.072 741.208 250.072ZM738.088 277V253.48H744.376V277H738.088ZM764.387 274.504H764.003C763.267 275.4 762.371 276.168 761.315 276.808C760.291 277.448 758.963 277.768 757.331 277.768C756.115 277.768 754.963 277.56 753.875 277.144C752.819 276.76 751.891 276.216 751.091 275.512C750.291 274.808 749.667 273.96 749.219 272.968C748.771 271.976 748.547 270.888 748.547 269.704C748.547 268.488 748.787 267.4 749.267 266.44C749.747 265.448 750.419 264.6 751.283 263.896C752.147 263.192 753.155 262.664 754.307 262.312C755.491 261.928 756.771 261.736 758.147 261.736C759.683 261.736 760.947 261.864 761.939 262.12C762.931 262.344 763.747 262.584 764.387 262.84V262.12C764.387 260.872 763.891 259.848 762.899 259.048C761.907 258.216 760.675 257.8 759.203 257.8C757.027 257.8 755.187 258.712 753.683 260.536L749.123 257.416C751.619 254.28 755.027 252.712 759.347 252.712C762.995 252.712 765.779 253.576 767.699 255.304C769.619 257 770.579 259.528 770.579 262.888V277H764.387V274.504ZM764.387 267.448C763.651 267.096 762.883 266.824 762.083 266.632C761.315 266.408 760.467 266.296 759.539 266.296C758.035 266.296 756.867 266.632 756.035 267.304C755.235 267.944 754.835 268.744 754.835 269.704C754.835 270.664 755.219 271.432 755.987 272.008C756.787 272.584 757.699 272.872 758.723 272.872C759.555 272.872 760.323 272.728 761.027 272.44C761.731 272.12 762.323 271.72 762.803 271.24C763.315 270.728 763.699 270.152 763.955 269.512C764.243 268.84 764.387 268.152 764.387 267.448Z" fill="white"/>
</svg>
